<svg width="192" height="192" viewBox="0 0 192 192" fill="none" xmlns="http://www.w3.org/2000/svg">
<g clip-path="url(#clip0_439_66)">
<rect width="192" height="192" fill="white"/>
<path d="M84.8655 192L55.2802 117.89L85.0896 44.0042L128.571 152.25H131.485L132.381 149.78C136.266 139.749 139.18 130.391 141.122 121.708C143.065 112.874 144.036 104.79 144.036 97.4534C144.036 88.7698 142.691 80.3107 140.002 72.0763C137.462 63.8418 133.726 56.5056 128.795 50.0678C123.864 43.4802 117.813 38.5395 110.641 35.2458V33H192V35.2458L180.121 38.6144L118.933 192H84.8655ZM-6.13162 192L-67.9917 37.4915L-78.75 35.2458V33H7.54035V35.2458L-8.59706 37.2669L37.5739 152.25H40.4876L40.9358 151.127C44.8208 141.246 47.8092 131.514 49.9011 121.932C51.993 112.201 53.0389 103.292 53.0389 95.2076C53.0389 80.9845 50.1252 68.7076 44.2978 58.3771C38.6198 48.0466 30.4017 40.3362 19.6434 35.2458V33H101.227V35.2458L89.7964 37.4915L27.9363 192H-6.13162Z" fill="black"/>
</g>
<defs>
<clipPath id="clip0_439_66">
<rect width="192" height="192" fill="white"/>
</clipPath>
</defs>
</svg>
