<svg width="512" height="512" viewBox="0 0 512 512" fill="none" xmlns="http://www.w3.org/2000/svg">
<g clip-path="url(#clip0_437_63)">
<rect width="512" height="512" fill="white"/>
<path d="M226.308 512L147.414 314.373L226.906 117.345L342.856 406H350.626L353.017 399.412C363.376 372.663 371.146 347.71 376.326 324.554C381.506 300.998 384.096 279.439 384.096 259.876C384.096 236.719 380.51 214.162 373.338 192.203C366.564 170.245 356.603 150.682 343.454 133.514C330.305 115.947 314.167 102.772 295.041 93.9887V88H512V93.9887L480.323 102.972L317.156 512H226.308ZM-16.351 512L-181.311 99.9774L-210 93.9887V88H20.1076V93.9887L-22.9255 99.3785L100.197 406H107.967L109.162 403.006C119.522 376.655 127.491 350.704 133.07 325.153C138.648 299.202 141.437 275.446 141.437 253.887C141.437 215.959 133.667 183.22 118.128 155.672C102.986 128.124 81.0712 107.563 52.3825 93.9887V88H269.939V93.9887L239.457 99.9774L74.4967 512H-16.351Z" fill="black"/>
</g>
<defs>
<clipPath id="clip0_437_63">
<rect width="512" height="512" fill="white"/>
</clipPath>
</defs>
</svg>
