<svg width="343" height="87" viewBox="0 0 343 87" fill="none" xmlns="http://www.w3.org/2000/svg">
<path d="M88.2 85L72.36 45.4L88.32 5.92003L111.6 63.76H113.16L113.64 62.44C115.72 57.08 117.28 52.08 118.32 47.44C119.36 42.72 119.88 38.4 119.88 34.48C119.88 29.84 119.16 25.32 117.72 20.92C116.36 16.52 114.36 12.6 111.72 9.16004C109.08 5.64003 105.84 3.00003 102 1.24004V0.0400391H145.56V1.24004L139.2 3.04004L106.44 85H88.2ZM39.48 85L6.36001 2.44004L0.600006 1.24004V0.0400391H46.8V1.24004L38.16 2.32004L62.88 63.76H64.44L64.68 63.16C66.76 57.88 68.36 52.68 69.48 47.56C70.6 42.36 71.16 37.6 71.16 33.28C71.16 25.68 69.6 19.12 66.48 13.6C63.44 8.08004 59.04 3.96004 53.28 1.24004V0.0400391H96.96V1.24004L90.84 2.44004L57.72 85H39.48Z" fill="black"/>
<path d="M173.9 23.2C179.34 23.2 184.02 23.68 187.94 24.64C191.86 25.52 195.1 26.92 197.66 28.84C200.22 30.76 202.1 33.16 203.3 36.04C204.5 38.84 205.1 42.16 205.1 46V81.16C205.1 81.72 205.18 82.24 205.34 82.72C205.58 83.12 205.98 83.32 206.54 83.32C207.02 83.32 207.66 83.16 208.46 82.84C209.26 82.52 210.22 82.04 211.34 81.4V82.6C210.22 83.4 208.82 84.12 207.14 84.76C205.46 85.4 203.66 85.88 201.74 86.2C199.82 86.6 197.94 86.8 196.1 86.8C190.34 86.8 185.7 85.4 182.18 82.6C178.66 79.72 176.9 74.92 176.9 68.2C176.9 68.04 176.9 67.92 176.9 67.84C176.9 67.68 176.9 67.52 176.9 67.36C176.9 67.12 176.9 66.84 176.9 66.52L176.06 65.8C174.62 69.08 172.98 72.04 171.14 74.68C169.38 77.24 167.42 79.44 165.26 81.28C163.18 83.04 160.98 84.4 158.66 85.36C156.34 86.32 153.94 86.8 151.46 86.8C148.34 86.8 145.58 86.2 143.18 85C140.78 83.8 138.86 82.16 137.42 80.08C136.06 78 135.38 75.6 135.38 72.88C135.38 66.16 139.02 60.92 146.3 57.16C153.66 53.4 163.86 51.52 176.9 51.52C176.9 44.56 176.58 39.24 175.94 35.56C175.38 31.8 174.14 29.24 172.22 27.88C170.38 26.44 167.54 25.72 163.7 25.72C161.78 25.72 160.06 25.92 158.54 26.32C157.1 26.64 155.94 27.04 155.06 27.52C154.26 28 153.86 28.4 153.86 28.72C153.86 29.2 154.42 29.72 155.54 30.28C156.66 30.84 158.7 31.6 161.66 32.56C167.5 34.48 170.42 37.4 170.42 41.32C170.42 44.76 168.86 47.4 165.74 49.24C162.7 51.08 158.82 52 154.1 52C149.46 52 145.62 51.08 142.58 49.24C139.62 47.4 138.14 44.76 138.14 41.32C138.14 39.08 139.1 36.88 141.02 34.72C142.94 32.56 145.58 30.64 148.94 28.96C152.3 27.2 156.1 25.8 160.34 24.76C164.66 23.72 169.18 23.2 173.9 23.2ZM176.9 52.72C173.06 52.72 169.98 53.72 167.66 55.72C165.34 57.72 163.66 60.12 162.62 62.92C161.58 65.72 161.06 68.32 161.06 70.72C161.06 72.16 161.18 73.36 161.42 74.32C161.74 75.28 162.14 76 162.62 76.48C163.18 76.96 163.86 77.2 164.66 77.2C165.46 77.2 166.34 76.92 167.3 76.36C168.26 75.8 169.26 74.92 170.3 73.72C171.42 72.44 172.54 70.8 173.66 68.8C174.78 66.72 175.86 64.2 176.9 61.24V52.72Z" fill="black"/>
<path d="M295.032 83.8V85H256.032V83.8L260.832 82.6V40C260.832 37.52 260.472 35.6 259.752 34.24C259.032 32.88 258.192 32.2 257.232 32.2C256.112 32.2 254.992 33 253.872 34.6C252.832 36.2 251.872 38.12 250.992 40.36C250.112 42.52 249.352 44.56 248.712 46.48C248.152 48.32 247.792 49.56 247.632 50.2V82.6L252.432 83.8V85H213.432V83.8L219.432 82.6V29.32H213.432V28L247.632 23.2V42.76L248.592 43.72C249.952 39.88 251.592 36.4 253.512 33.28C255.432 30.16 257.752 27.72 260.472 25.96C263.272 24.12 266.672 23.2 270.672 23.2C274.352 23.2 277.392 23.76 279.792 24.88C282.192 26 284.032 27.56 285.312 29.56C286.672 31.48 287.632 33.72 288.192 36.28C288.752 38.76 289.032 41.4 289.032 44.2V82.6L295.032 83.8Z" fill="black"/>
<path d="M323.85 86.8C316.57 86.8 311.33 84.84 308.13 80.92C305.01 76.92 303.45 71.04 303.45 63.28V27.4H296.25V26.2L303.45 25L329.25 5.32004H331.65V23.2L342.45 26.2V27.4H331.65V73C331.65 75.96 332.13 78.12 333.09 79.48C334.13 80.76 335.37 81.4 336.81 81.4C337.61 81.4 338.41 81.24 339.21 80.92C340.01 80.6 340.81 80.16 341.61 79.6V82C340.49 82.72 339.25 83.4 337.89 84.04C336.53 84.6 335.09 85.08 333.57 85.48C332.13 85.96 330.57 86.28 328.89 86.44C327.29 86.68 325.61 86.8 323.85 86.8Z" fill="black"/>
</svg>
